<svg xmlns="http://www.w3.org/2000/svg" xmlns:svg="http://www.w3.org/2000/svg" id="svg2" width="200" height="200" version="1.1"><defs id="defs4"><linearGradient id="linearGradient3757"><stop id="stop3759" offset="0" stop-color="#1d238e" stop-opacity="1"/><stop id="stop3761" offset="1" stop-color="#0e1145" stop-opacity="1"/></linearGradient></defs><metadata id="metadata7"/><g id="layer1" display="inline" transform="translate(-200,-652.36217)"><path font-size="medium" style="text-indent:0;text-align:start;line-height:normal;text-transform:none;block-progression:tb;marker:none;-inkscape-font-specification:Sans" id="path3755" fill="#040c4b" fill-opacity="1" stroke="none" stroke-width="20" d="m 300,652.36217 c -55.1208,0 -100,44.8792 -100,100 0,55.12092 44.8792,100.00002 100,100.00002 55.1208,0 100,-44.8791 100,-100.00002 0,-55.1208 -44.8792,-100 -100,-100 z m 0,18.18182 c 45.29461,0 81.81818,36.52357 81.81818,81.81818 0,45.29459 -36.52357,81.81822 -81.81818,81.81822 -45.29461,0 -81.81818,-36.52363 -81.81818,-81.81822 0,-45.29461 36.52357,-81.81818 81.81818,-81.81818 z" baseline-shift="baseline" color="#000" direction="ltr" display="inline" enable-background="accumulate" font-family="Sans" font-stretch="normal" font-style="normal" font-variant="normal" font-weight="normal" letter-spacing="normal" overflow="visible" text-anchor="start" text-decoration="none" visibility="visible" word-spacing="normal" writing-mode="lr-tb"/></g><g id="layer2" display="none" transform="translate(-200,-199.99999)"><path id="path4464" fill="#fff" fill-opacity="1" fill-rule="nonzero" stroke="none" d="m -124.25,224.26407 c 0,127.96115 48.800571,255.92232 146.434883,353.5534 195.268617,195.26213 511.861617,195.26213 707.130237,0 C 826.94942,480.18639 875.75,352.22521 875.75,224.26407 l -1000,0 z"/></g></svg>