<svg xmlns:dc="http://purl.org/dc/elements/1.1/" xmlns:cc="http://creativecommons.org/ns#" xmlns:rdf="http://www.w3.org/1999/02/22-rdf-syntax-ns#" xmlns:svg="http://www.w3.org/2000/svg" xmlns="http://www.w3.org/2000/svg" width="200" height="200" id="svg2" version="1.1"><defs id="defs4"><linearGradient id="linearGradient3757"><stop offset="0" id="stop3759" stop-color="#1d238e" stop-opacity="1"/><stop offset="1" id="stop3761" stop-color="#0e1145" stop-opacity="1"/></linearGradient></defs><metadata id="metadata7"><rdf:RDF><cc:Work><dc:format>image/svg+xml</dc:format><dc:type rdf:resource="http://purl.org/dc/dcmitype/StillImage"/><dc:title/></cc:Work></rdf:RDF></metadata><g id="layer1" transform="translate(-200,-652.36217)" display="inline"><path style="text-indent:0;text-align:start;line-height:normal;text-transform:none;block-progression:tb;marker:none;-inkscape-font-specification:Sans" d="m 300,652.36217 c -55.1208,0 -100,44.8792 -100,100 0,55.12092 44.8792,100.00002 100,100.00002 55.1208,0 100,-44.8791 100,-100.00002 0,-55.1208 -44.8792,-100 -100,-100 z m 0,18.18182 c 45.29461,0 81.81818,36.52357 81.81818,81.81818 0,45.29459 -36.52357,81.81822 -81.81818,81.81822 -45.29461,0 -81.81818,-36.52363 -81.81818,-81.81822 0,-45.29461 36.52357,-81.81818 81.81818,-81.81818 z" id="path3755" font-size="medium" font-style="normal" font-variant="normal" font-weight="normal" font-stretch="normal" text-decoration="none" letter-spacing="normal" word-spacing="normal" direction="ltr" writing-mode="lr-tb" text-anchor="start" baseline-shift="baseline" color="#000000" fill="#040c4b" fill-opacity="1" stroke="none" stroke-width="20" visibility="visible" display="inline" overflow="visible" enable-background="accumulate" font-family="Sans"/></g><g id="layer2" transform="translate(-200,-199.99999)" display="none"><path d="m -124.25,224.26407 c 0,127.96115 48.800571,255.92232 146.434883,353.5534 195.268617,195.26213 511.861617,195.26213 707.130237,0 C 826.94942,480.18639 875.75,352.22521 875.75,224.26407 l -1000,0 z" id="path4464" fill="#ffffff" fill-opacity="1" fill-rule="nonzero" stroke="none"/></g></svg>