<?xml version="1.0" encoding="UTF-8" standalone="no"?>
<!-- Created with Inkscape (http://www.inkscape.org/) -->

<svg
   xmlns:dc="http://purl.org/dc/elements/1.1/"
   xmlns:cc="http://creativecommons.org/ns#"
   xmlns:rdf="http://www.w3.org/1999/02/22-rdf-syntax-ns#"
   xmlns:svg="http://www.w3.org/2000/svg"
   xmlns="http://www.w3.org/2000/svg"
   xmlns:sodipodi="http://sodipodi.sourceforge.net/DTD/sodipodi-0.dtd"
   xmlns:inkscape="http://www.inkscape.org/namespaces/inkscape"
   width="257.71701"
   height="257.71899"
   id="svg2"
   version="1.1"
   inkscape:version="0.48.4 r9939"
   sodipodi:docname="fb_wikimedia.svg">
  <defs
     id="defs4" />
  <sodipodi:namedview
     id="base"
     pagecolor="#ffffff"
     bordercolor="#666666"
     borderopacity="1.0"
     inkscape:pageopacity="0.0"
     inkscape:pageshadow="2"
     inkscape:zoom="1.4"
     inkscape:cx="44.387334"
     inkscape:cy="151.14186"
     inkscape:document-units="px"
     inkscape:current-layer="g2994"
     showgrid="false"
     fit-margin-top="0"
     fit-margin-left="0"
     fit-margin-right="0"
     fit-margin-bottom="0"
     inkscape:window-width="1024"
     inkscape:window-height="746"
     inkscape:window-x="-8"
     inkscape:window-y="-8"
     inkscape:window-maximized="1" />
  <metadata
     id="metadata7">
    <rdf:RDF>
      <cc:Work
         rdf:about="">
        <dc:format>image/svg+xml</dc:format>
        <dc:type
           rdf:resource="http://purl.org/dc/dcmitype/StillImage" />
        <dc:title />
      </cc:Work>
    </rdf:RDF>
  </metadata>
  <g
     inkscape:label="Calque 1"
     inkscape:groupmode="layer"
     id="layer1"
     transform="translate(-105.42721,-340.64554)">
    <g
       id="g2994"
       transform="translate(100.83921,336.05754)">
      <path
         style="fill:#040c4b;fill-opacity:1"
         d="M 14.21875 0 C 6.36175 0 0 6.36175 0 14.21875 L 0 243.5 C 0 251.355 6.36075 257.71875 14.21875 257.71875 L 137.65625 257.71875 L 137.65625 157.90625 L 104.0625 157.90625 L 104.0625 119.03125 L 137.65625 119.03125 L 137.65625 90.34375 C 137.65625 57.05675 157.9925 38.9375 187.6875 38.9375 C 201.9115 38.9375 214.1255 39.99475 217.6875 40.46875 L 217.6875 75.25 L 197.09375 75.25 C 180.94575 75.25 177.8125 82.9265 177.8125 94.1875 L 177.8125 119.03125 L 216.34375 119.03125 L 211.3125 157.90625 L 177.8125 157.90625 L 177.8125 257.71875 L 243.5 257.71875 C 251.354 257.71875 257.71875 251.356 257.71875 243.5 L 257.71875 14.21875 C 257.71875 6.36175 251.355 0 243.5 0 L 14.21875 0 z "
         transform="translate(4.588,4.588)"
         id="Blue_1_" />
    </g>
  </g>
</svg>
