<?xml version="1.0" encoding="UTF-8" standalone="no"?>
<!-- Created with Inkscape (http://www.inkscape.org/) -->

<svg
   xmlns:dc="http://purl.org/dc/elements/1.1/"
   xmlns:cc="http://creativecommons.org/ns#"
   xmlns:rdf="http://www.w3.org/1999/02/22-rdf-syntax-ns#"
   xmlns:svg="http://www.w3.org/2000/svg"
   xmlns="http://www.w3.org/2000/svg"
   xmlns:sodipodi="http://sodipodi.sourceforge.net/DTD/sodipodi-0.dtd"
   xmlns:inkscape="http://www.inkscape.org/namespaces/inkscape"
   width="20"
   height="20"
   id="svg2"
   version="1.1"
   inkscape:version="0.48.4 r9939"
   sodipodi:docname="Etoile.svg">
  <defs
     id="defs4">
    <linearGradient
       id="linearGradient3757">
      <stop
         style="stop-color:#1d238e;stop-opacity:1;"
         offset="0"
         id="stop3759" />
      <stop
         style="stop-color:#0e1145;stop-opacity:1;"
         offset="1"
         id="stop3761" />
    </linearGradient>
  </defs>
  <sodipodi:namedview
     id="base"
     pagecolor="#ffffff"
     bordercolor="#666666"
     borderopacity="1.0"
     inkscape:pageopacity="0.0"
     inkscape:pageshadow="2"
     inkscape:zoom="22.627417"
     inkscape:cx="7.7581622"
     inkscape:cy="10.236326"
     inkscape:document-units="px"
     inkscape:current-layer="layer1"
     showgrid="false"
     inkscape:snap-page="true"
     inkscape:window-width="1600"
     inkscape:window-height="848"
     inkscape:window-x="1016"
     inkscape:window-y="-8"
     inkscape:window-maximized="1"
     fit-margin-top="0"
     fit-margin-left="0"
     fit-margin-right="0"
     fit-margin-bottom="0"
     inkscape:snap-bbox="false"
     inkscape:snap-bbox-midpoints="false" />
  <metadata
     id="metadata7">
    <rdf:RDF>
      <cc:Work
         rdf:about="">
        <dc:format>image/svg+xml</dc:format>
        <dc:type
           rdf:resource="http://purl.org/dc/dcmitype/StillImage" />
        <dc:title />
      </cc:Work>
    </rdf:RDF>
  </metadata>
  <g
     inkscape:label="Calque 1"
     inkscape:groupmode="layer"
     id="layer1"
     transform="translate(-499.46011,-293.09206)"
     style="display:inline">
    <path
       style="font-size:medium;font-style:normal;font-variant:normal;font-weight:normal;font-stretch:normal;text-indent:0;text-align:start;text-decoration:none;line-height:normal;letter-spacing:normal;word-spacing:normal;text-transform:none;direction:ltr;block-progression:tb;writing-mode:lr-tb;text-anchor:start;baseline-shift:baseline;color:#000000;fill:#040c4b;fill-opacity:1;stroke:none;stroke-width:1;marker:none;visibility:visible;display:inline;overflow:visible;enable-background:accumulate;font-family:Sans;-inkscape-font-specification:Sans"
       d="m 503.45439,293.53429 0.14266,0.91297 0.94151,5.99145 -4.42225,4.16548 -0.6562,0.62767 0.91297,0.14266 5.99145,0.97004 2.59629,5.47789 0.39944,0.82738 0.42795,-0.82738 2.73895,-5.39231 6.01997,-0.77033 0.91298,-0.11412 -0.65621,-0.65621 -4.25107,-4.30812 1.08417,-5.96291 0.17119,-0.91299 -0.79887,0.42796 -5.42082,2.73894 -5.33524,-2.91012 -0.79887,-0.42796 z m 1.1983,1.71183 4.70757,2.53924 0.1997,0.11412 0.22825,-0.11412 4.79316,-2.39658 -0.99858,5.24965 -0.0285,0.25677 0.17119,0.17118 3.79458,3.79459 -5.33524,0.71327 -0.22825,0.0285 -0.11412,0.19972 -2.45364,4.79315 -2.31098,-4.85021 -0.11413,-0.22824 -0.22824,-0.0285 -5.33524,-0.85593 3.93724,-3.70899 0.17117,-0.14265 -0.0285,-0.25678 -0.82739,-5.27818 z"
       id="path2990"
       inkscape:connector-curvature="0" />
  </g>
  <g
     inkscape:groupmode="layer"
     id="layer2"
     inkscape:label="Calque"
     transform="translate(-499.46011,159.27012)"
     style="display:none">
    <path
       style="fill:#ffffff;fill-opacity:1;fill-rule:nonzero;stroke:none"
       d="m -124.25,224.26407 c 0,127.96115 48.800571,255.92232 146.434883,353.5534 195.268617,195.26213 511.861617,195.26213 707.130237,0 C 826.94942,480.18639 875.75,352.22521 875.75,224.26407 l -1000,0 z"
       id="path4464"
       inkscape:connector-curvature="0"
       inkscape:transform-center-y="250" />
  </g>
</svg>
