<svg xmlns="http://www.w3.org/2000/svg" xmlns:svg="http://www.w3.org/2000/svg" id="svg2" width="257.717" height="257.719" version="1.1"><metadata id="metadata7"/><g id="layer1" transform="translate(-105.42721,-340.64554)"><g id="g2994" transform="translate(100.83921,336.05754)"><path style="fill:#040c4b;fill-opacity:1" id="Blue_1_" d="M 14.21875 0 C 6.36175 0 0 6.36175 0 14.21875 L 0 243.5 C 0 251.355 6.36075 257.71875 14.21875 257.71875 L 137.65625 257.71875 L 137.65625 157.90625 L 104.0625 157.90625 L 104.0625 119.03125 L 137.65625 119.03125 L 137.65625 90.34375 C 137.65625 57.05675 157.9925 38.9375 187.6875 38.9375 C 201.9115 38.9375 214.1255 39.99475 217.6875 40.46875 L 217.6875 75.25 L 197.09375 75.25 C 180.94575 75.25 177.8125 82.9265 177.8125 94.1875 L 177.8125 119.03125 L 216.34375 119.03125 L 211.3125 157.90625 L 177.8125 157.90625 L 177.8125 257.71875 L 243.5 257.71875 C 251.354 257.71875 257.71875 251.356 257.71875 243.5 L 257.71875 14.21875 C 257.71875 6.36175 251.355 0 243.5 0 L 14.21875 0 z" transform="translate(4.588,4.588)"/></g></g></svg>