<svg xmlns="http://www.w3.org/2000/svg" xmlns:svg="http://www.w3.org/2000/svg" id="svg2" width="1500" height="750" version="1.1"><defs id="defs4"><linearGradient id="linearGradient3757"><stop style="stop-color:#1d238e;stop-opacity:1" id="stop3759" offset="0"/><stop style="stop-color:#0e1145;stop-opacity:1" id="stop3761" offset="1"/></linearGradient><linearGradient id="linearGradient3757-4"><stop id="stop3759-0" offset="0" style="stop-color:#1d238e;stop-opacity:1"/><stop id="stop3761-9" offset="1" style="stop-color:#0e1145;stop-opacity:1"/></linearGradient></defs><metadata id="metadata7"/><g id="layer1" transform="translate(124.25,-426.62625)" style="display:none"><path style="font-size:medium;font-style:normal;font-variant:normal;font-weight:400;font-stretch:normal;text-indent:0;text-align:start;text-decoration:none;line-height:normal;letter-spacing:normal;word-spacing:normal;text-transform:none;direction:ltr;block-progression:tb;writing-mode:lr-tb;text-anchor:start;baseline-shift:baseline;color:#000;fill:#130f0e;fill-opacity:1;stroke:none;stroke-width:20;marker:none;visibility:visible;display:inline;overflow:visible;enable-background:accumulate;font-family:Sans;-inkscape-font-specification:Sans" id="path3755" d="m 300,652.36217 c -55.1208,0 -100,44.8792 -100,100 0,55.12092 44.8792,100.00002 100,100.00002 55.1208,0 100,-44.8791 100,-100.00002 0,-55.1208 -44.8792,-100 -100,-100 z m 0,18.18182 c 45.29461,0 81.81818,36.52357 81.81818,81.81818 0,45.29459 -36.52357,81.81822 -81.81818,81.81822 -45.29461,0 -81.81818,-36.52363 -81.81818,-81.81822 0,-45.29461 36.52357,-81.81818 81.81818,-81.81818 z"/></g><g id="layer2" transform="translate(124.25,25.73593)" style="display:inline"><path style="fill:#fff;fill-opacity:1;fill-rule:nonzero;stroke:none" id="path4464" d="m -124.25,-25.735932 c 0,191.941732 73.200859,383.883482 219.652331,530.330102 292.902939,292.8932 767.792449,292.8932 1060.695369,0 C 1302.5491,358.14755 1375.75,166.20578 1375.75,-25.735932 l -1500,0 z"/></g></svg>