<svg xmlns="http://www.w3.org/2000/svg" xmlns:svg="http://www.w3.org/2000/svg" id="svg2" width="20" height="24.313" version="1.1"><defs id="defs4"><linearGradient id="linearGradient3757"><stop style="stop-color:#1d238e;stop-opacity:1" id="stop3759" offset="0"/><stop style="stop-color:#0e1145;stop-opacity:1" id="stop3761" offset="1"/></linearGradient></defs><metadata id="metadata7"/><g id="layer1" transform="translate(-499.46011,-288.77956)" style="display:inline"><path style="fill:#fbf3b4;fill-opacity:1;fill-rule:nonzero;stroke:none" id="rect3769" d="m 499.46011,293.85681 2.09375,-3.19922 3.1875,6.23828 2.21875,-5.91797 2.65625,5.67578 2.34375,-5.98046 2.46875,6.08203 2.53125,-7.35547 1.71875,5.55078 0.78125,18.14151 -20,0 z"/><path style="fill:#040c4b;fill-opacity:1;fill-rule:nonzero;stroke:none" id="rect2989" d="M 2.5 0 L 0 4.3125 L 0 24.3125 L 20 24.3125 L 20 4.3125 L 17.5 0 L 15 7.3125 L 12.5 0 L 10 7.3125 L 7.5 0 L 5 7.3125 L 2.5 0 z M 2.65625 2.84375 L 5.125 9.125 L 7.5625 2.84375 L 10 9.125 L 12.4375 2.84375 L 14.875 9.125 L 17.34375 2.84375 L 18.59375 6.5625 L 18.59375 22.78125 L 1.40625 22.78125 L 1.40625 6.5625 L 2.65625 2.84375 z" transform="translate(499.46011,288.77956)"/><path style="fill:none;stroke:#040c4b;stroke-width:1.04489982px;stroke-linecap:butt;stroke-linejoin:miter;stroke-opacity:1" id="path3779" d="m 504.725,299.85511 9.47022,9.47022"/><path style="fill:none;stroke:#040c4b;stroke-width:1.04489982px;stroke-linecap:butt;stroke-linejoin:miter;stroke-opacity:1;display:inline" id="path3779-4" d="m 504.725,309.32533 9.47022,-9.47022"/></g><g id="layer2" transform="translate(-499.46011,163.58262)" style="display:none"><path style="fill:#fff;fill-opacity:1;fill-rule:nonzero;stroke:none" id="path4464" d="m -124.25,224.26407 c 0,127.96115 48.800571,255.92232 146.434883,353.5534 195.268617,195.26213 511.861617,195.26213 707.130237,0 C 826.94942,480.18639 875.75,352.22521 875.75,224.26407 l -1000,0 z"/></g></svg>