<?xml version="1.0" encoding="UTF-8" standalone="no"?>
<!-- Created with Inkscape (http://www.inkscape.org/) -->

<svg
   xmlns:dc="http://purl.org/dc/elements/1.1/"
   xmlns:cc="http://creativecommons.org/ns#"
   xmlns:rdf="http://www.w3.org/1999/02/22-rdf-syntax-ns#"
   xmlns:svg="http://www.w3.org/2000/svg"
   xmlns="http://www.w3.org/2000/svg"
   xmlns:sodipodi="http://sodipodi.sourceforge.net/DTD/sodipodi-0.dtd"
   xmlns:inkscape="http://www.inkscape.org/namespaces/inkscape"
   width="20"
   height="24.3125"
   id="svg2"
   version="1.1"
   inkscape:version="0.48.4 r9939"
   sodipodi:docname="Piege.svg">
  <defs
     id="defs4">
    <linearGradient
       id="linearGradient3757">
      <stop
         style="stop-color:#1d238e;stop-opacity:1;"
         offset="0"
         id="stop3759" />
      <stop
         style="stop-color:#0e1145;stop-opacity:1;"
         offset="1"
         id="stop3761" />
    </linearGradient>
  </defs>
  <sodipodi:namedview
     id="base"
     pagecolor="#ffffff"
     bordercolor="#666666"
     borderopacity="1.0"
     inkscape:pageopacity="0.0"
     inkscape:pageshadow="2"
     inkscape:zoom="16.000001"
     inkscape:cx="19.742501"
     inkscape:cy="6.8003637"
     inkscape:document-units="px"
     inkscape:current-layer="layer1"
     showgrid="false"
     inkscape:snap-page="true"
     inkscape:window-width="1600"
     inkscape:window-height="848"
     inkscape:window-x="1016"
     inkscape:window-y="-8"
     inkscape:window-maximized="1"
     fit-margin-top="0"
     fit-margin-left="0"
     fit-margin-right="0"
     fit-margin-bottom="0"
     inkscape:snap-bbox="false"
     inkscape:snap-bbox-midpoints="false" />
  <metadata
     id="metadata7">
    <rdf:RDF>
      <cc:Work
         rdf:about="">
        <dc:format>image/svg+xml</dc:format>
        <dc:type
           rdf:resource="http://purl.org/dc/dcmitype/StillImage" />
        <dc:title />
      </cc:Work>
    </rdf:RDF>
  </metadata>
  <g
     inkscape:label="Calque 1"
     inkscape:groupmode="layer"
     id="layer1"
     transform="translate(-499.46011,-288.77956)"
     style="display:inline">
    <path
       style="fill:#fbf3b4;fill-opacity:1;fill-rule:nonzero;stroke:none"
       d="m 499.46011,293.85681 2.09375,-3.19922 3.1875,6.23828 2.21875,-5.91797 2.65625,5.67578 2.34375,-5.98046 2.46875,6.08203 2.53125,-7.35547 1.71875,5.55078 0.78125,18.14151 -20,0 z"
       id="rect3769"
       inkscape:connector-curvature="0"
       sodipodi:nodetypes="cccccccccccc" />
    <path
       style="fill:#040c4b;fill-opacity:1;fill-rule:nonzero;stroke:none"
       d="M 2.5 0 L 0 4.3125 L 0 24.3125 L 20 24.3125 L 20 4.3125 L 17.5 0 L 15 7.3125 L 12.5 0 L 10 7.3125 L 7.5 0 L 5 7.3125 L 2.5 0 z M 2.65625 2.84375 L 5.125 9.125 L 7.5625 2.84375 L 10 9.125 L 12.4375 2.84375 L 14.875 9.125 L 17.34375 2.84375 L 18.59375 6.5625 L 18.59375 22.78125 L 1.40625 22.78125 L 1.40625 6.5625 L 2.65625 2.84375 z "
       transform="translate(499.46011,288.77956)"
       id="rect2989" />
    <path
       style="fill:none;stroke:#040c4b;stroke-width:1.04489982px;stroke-linecap:butt;stroke-linejoin:miter;stroke-opacity:1"
       d="m 504.725,299.85511 9.47022,9.47022"
       id="path3779"
       inkscape:connector-curvature="0" />
    <path
       style="fill:none;stroke:#040c4b;stroke-width:1.04489982px;stroke-linecap:butt;stroke-linejoin:miter;stroke-opacity:1;display:inline"
       d="m 504.725,309.32533 9.47022,-9.47022"
       id="path3779-4"
       inkscape:connector-curvature="0" />
  </g>
  <g
     inkscape:groupmode="layer"
     id="layer2"
     inkscape:label="Calque"
     transform="translate(-499.46011,163.58262)"
     style="display:none">
    <path
       style="fill:#ffffff;fill-opacity:1;fill-rule:nonzero;stroke:none"
       d="m -124.25,224.26407 c 0,127.96115 48.800571,255.92232 146.434883,353.5534 195.268617,195.26213 511.861617,195.26213 707.130237,0 C 826.94942,480.18639 875.75,352.22521 875.75,224.26407 l -1000,0 z"
       id="path4464"
       inkscape:connector-curvature="0"
       inkscape:transform-center-y="250" />
  </g>
</svg>
